<mxfile host="app.diagrams.net" modified="2023-09-06T08:30:37.996Z" agent="Mozilla/5.0 (Macintosh; Intel Mac OS X 10_15_7) AppleWebKit/537.36 (KHTML, like Gecko) Chrome/116.0.0.0 Safari/537.36" etag="0tzttkG-VsQ5D1XBnKGA" version="21.7.2" type="github">
  <diagram name="第 1 页" id="aNkRHOPwi-6N8yYbUQAD">
    <mxGraphModel dx="1194" dy="705" grid="1" gridSize="10" guides="1" tooltips="1" connect="1" arrows="1" fold="1" page="1" pageScale="1" pageWidth="827" pageHeight="1169" math="0" shadow="0">
      <root>
        <mxCell id="0" />
        <mxCell id="1" parent="0" />
      </root>
    </mxGraphModel>
  </diagram>
</mxfile>
